<svg width="45" height="45" viewBox="0 0 45 45" fill="none" xmlns="http://www.w3.org/2000/svg">
<rect x="0.5" y="0.5" width="44" height="44" rx="9.5" fill="#F7B529"/>
<rect x="0.5" y="0.5" width="44" height="44" rx="9.5" stroke="#F7B529"/>
<path fill-rule="evenodd" clip-rule="evenodd" d="M17.4567 33.3747C27.7159 33.3747 33.3274 25.0058 33.3274 17.7492C33.3274 17.511 33.3274 17.2745 33.3111 17.039C34.4027 16.2627 35.3447 15.2989 36.0938 14.1961C35.0769 14.6405 33.9962 14.9319 32.8911 15.0603C34.0547 14.3737 34.926 13.2951 35.3434 12.0223C34.2477 12.662 33.0501 13.1135 31.8008 13.3558C29.6884 11.1448 26.1554 11.0377 23.9083 13.1175C22.4606 14.4585 21.8448 16.458 22.2947 18.3652C17.8102 18.143 13.6314 16.0579 10.7985 12.6277C9.31814 15.1371 10.0753 18.3461 12.5263 19.9575C11.6386 19.9321 10.77 19.6968 9.99375 19.2712V19.3409C9.99511 21.9547 11.867 24.2054 14.4688 24.7233C13.6477 24.9441 12.7859 24.9762 11.9512 24.8169C12.6812 27.0546 14.776 28.5873 17.1617 28.6315C15.1866 30.1599 12.7465 30.9899 10.2344 30.9872C9.7912 30.9858 9.34805 30.9604 8.90625 30.9082C11.4578 32.5196 14.4253 33.3747 17.4567 33.3707" fill="white"/>
</svg>
